<svg width="65" height="65" viewBox="0 0 65 65" fill="none" xmlns="http://www.w3.org/2000/svg">
<path d="M40.2213 38.7934C40.2213 39.2718 39.9312 39.7031 39.4841 39.876L32.5725 42.5275C30.1406 43.4609 28.2343 45.4063 27.3401 47.8616L24.712 55.1034C24.693 55.1572 24.6519 55.1954 24.6249 55.2441C24.6028 55.2846 24.5807 55.3237 24.5531 55.361C24.5108 55.4166 24.4691 55.4668 24.4163 55.5119C24.3354 55.5841 24.2465 55.6476 24.1471 55.6913C24.0845 55.7147 24.0214 55.7377 23.9588 55.7465C23.8963 55.7616 23.8337 55.7699 23.7705 55.7699L23.5669 55.7465C23.5037 55.7377 23.4411 55.7147 23.378 55.6913C23.2749 55.6466 23.1842 55.5818 23.102 55.5073C23.0517 55.464 23.0106 55.4148 22.9695 55.3614C22.9456 55.3292 22.9266 55.2961 22.9069 55.2625C22.8738 55.2083 22.8284 55.1636 22.8057 55.1034L20.1776 47.8616C19.2907 45.4063 17.3845 43.4609 14.9532 42.5275L8.04159 39.876C7.59447 39.7031 7.29639 39.2718 7.29639 38.7934C7.29639 38.2912 7.62575 37.8439 8.10415 37.6949L14.427 35.7022C17.1649 34.8393 19.3226 32.7214 20.2481 30.0069L22.8211 22.4051C22.8523 22.3194 22.8916 22.2408 22.9388 22.1703C22.9701 22.1224 23.002 22.0757 23.0486 22.0367C23.1431 21.9348 23.2608 21.8562 23.4019 21.8012C23.4411 21.7856 23.4884 21.7698 23.535 21.7623C23.6061 21.7379 23.684 21.7305 23.7625 21.7305C23.8411 21.7305 23.9195 21.7379 23.9901 21.7623C24.0373 21.7698 24.0845 21.7856 24.1238 21.8012C24.2489 21.8483 24.3587 21.9267 24.4531 22.0132C24.4924 22.052 24.5237 22.0918 24.555 22.1303C24.6175 22.2168 24.6727 22.3028 24.704 22.4051L27.2769 30.0069C28.1951 32.7214 30.3602 34.8393 33.0901 35.7022L39.413 37.6949C39.8993 37.8439 40.2213 38.2912 40.2213 38.7934Z" fill="#636AE8"/>
<path d="M58.1528 25.0322C58.1528 25.2941 57.9941 25.5303 57.7494 25.6247L53.9645 27.0771C52.6328 27.5881 51.5891 28.6533 51.0996 29.9978L49.6607 33.9629C49.6502 33.9924 49.6276 34.0133 49.6129 34.0403C49.6005 34.0624 49.589 34.0839 49.5738 34.104C49.5503 34.1342 49.5278 34.1618 49.4988 34.1862C49.4547 34.2267 49.4054 34.2605 49.3512 34.2849C49.3171 34.2979 49.2822 34.3108 49.2481 34.3152C49.2136 34.3237 49.1791 34.3281 49.1451 34.3281L49.0333 34.3152C48.9988 34.3108 48.9648 34.2979 48.9303 34.2849C48.8737 34.2598 48.824 34.2248 48.7794 34.1846C48.7513 34.1606 48.7292 34.1336 48.7062 34.1048C48.6934 34.0868 48.6832 34.0691 48.6722 34.0506C48.6543 34.0207 48.629 33.9962 48.617 33.9629L47.1781 29.9978C46.6924 28.6533 45.6483 27.5881 44.3168 27.0771L40.5325 25.6247C40.2872 25.5303 40.124 25.2941 40.124 25.0322C40.124 24.757 40.3049 24.5128 40.5669 24.4306L44.0291 23.34C45.5281 22.8671 46.7094 21.7073 47.2168 20.2214L48.6253 16.0591C48.6428 16.0115 48.6639 15.9684 48.6897 15.9298C48.7072 15.9041 48.7242 15.8782 48.7499 15.8569C48.8015 15.8011 48.8659 15.7575 48.9431 15.728C48.9648 15.7194 48.9905 15.7108 49.0163 15.706C49.0549 15.6937 49.0977 15.6895 49.1405 15.6895C49.1837 15.6895 49.2265 15.6937 49.2651 15.706C49.2914 15.7108 49.3171 15.7194 49.3383 15.728C49.4068 15.7537 49.4675 15.7968 49.5191 15.844C49.5407 15.8653 49.5577 15.8869 49.5743 15.9089C49.6092 15.9557 49.6387 16.0028 49.6566 16.0591L51.0651 20.2214C51.5674 21.7073 52.7538 22.8671 54.2483 23.34L57.7107 24.4306C57.9771 24.5128 58.1528 24.757 58.1528 25.0322Z" fill="#E8618C"/>
<path d="M40.008 15.0258C40.008 15.198 39.9031 15.3533 39.7419 15.4158L37.2499 16.3719C36.3728 16.7089 35.6853 17.4104 35.3633 18.2954L34.4157 20.9064C34.4089 20.9259 34.3936 20.9394 34.3838 20.9574C34.3758 20.9715 34.3678 20.9861 34.358 20.9991C34.3427 21.0192 34.3279 21.0376 34.3089 21.0536C34.2795 21.08 34.2476 21.1025 34.212 21.1179C34.1887 21.1265 34.1667 21.1358 34.1439 21.1382C34.1213 21.1438 34.0986 21.1462 34.0759 21.1462L34.0023 21.1382C33.9796 21.1358 33.9575 21.1265 33.9342 21.1179C33.8974 21.102 33.8649 21.0789 33.8348 21.0523C33.8171 21.0364 33.8023 21.0187 33.787 20.9995C33.779 20.9885 33.7717 20.9763 33.7649 20.9634C33.7527 20.9437 33.7361 20.9283 33.7281 20.9064L32.7805 18.2954C32.461 17.4104 31.7734 16.7089 30.8963 16.3719L28.4044 15.4158C28.2431 15.3533 28.1357 15.198 28.1357 15.0258C28.1357 14.8442 28.2547 14.6829 28.4271 14.629L30.7068 13.9107C31.6943 13.5998 32.472 12.8362 32.8063 11.8573L33.7336 9.11623C33.7447 9.08509 33.7594 9.0568 33.7759 9.0309C33.7876 9.01434 33.7987 8.99737 33.8158 8.98325C33.8495 8.94635 33.8925 8.91806 33.9434 8.89842C33.9575 8.8929 33.9741 8.88692 33.9912 8.88384C34.0164 8.87519 34.0452 8.87354 34.0734 8.87354C34.1016 8.87354 34.1299 8.87519 34.155 8.88384C34.1722 8.88692 34.1887 8.8929 34.2035 8.89842C34.2488 8.91517 34.2881 8.94396 34.3218 8.9751C34.3365 8.98872 34.3476 9.00289 34.3586 9.01701C34.3813 9.04815 34.4015 9.07957 34.4126 9.11623L35.3406 11.8573C35.6711 12.8362 36.4519 13.5998 37.4363 13.9107L39.7167 14.629C39.8915 14.6829 40.008 14.8442 40.008 15.0258Z" fill="#22CCB2"/>
</svg>
