<?xml version="1.0" encoding="UTF-8"?>
<svg width="96" height="96" viewBox="0 0 96 96" fill="none" xmlns="http://www.w3.org/2000/svg">
<path d="M84.5672 18C86.7565 18 88.2849 19.4756 88.2849 21.5892V73.892C88.2849 76.0057 86.7565 77.4812 84.5672 77.4812H77.834V73.9718H83.0388C83.7823 73.9718 84.1541 73.573 84.1541 72.7754V22.7058C84.1541 21.9082 83.7823 21.5094 83.0388 21.5094H77.834V18H84.5672Z" fill="#3EDCB6"/>
<path d="M10.7177 18C8.52839 18 7 19.4756 7 21.5892V73.892C7 76.0057 8.52839 77.4812 10.7177 77.4812H17.4509V73.9718H12.2461C11.5026 73.9718 11.1308 73.573 11.1308 72.7754V22.7058C11.1308 21.9082 11.5026 21.5094 12.2461 21.5094H17.4509V18H10.7177Z" fill="#3EDCB6"/>
<path d="M52.0395 29.3579V19.3579H55.1126V29.3579H52.0395ZM48.5 25.8714V22.8444H58.6521V25.8714H48.5Z" fill="url(#paint0_linear_228_37)"/>
<path d="M63.8874 29.3579V19.3579H66.9605V29.3579H63.8874ZM60.3479 25.8714V22.8444H70.5V25.8714H60.3479Z" fill="url(#paint1_linear_228_37)"/>
<path d="M24 74.3579V22.3579H32.1018V44.9556H58.872V32.3579H67V74.3579H58.872V51.6841H32.1018V74.3579H24Z" fill="url(#paint2_linear_228_37)"/>
<defs>
<linearGradient id="paint0_linear_228_37" x1="59.5526" y1="11.5543" x2="59.5526" y2="34.7345" gradientUnits="userSpaceOnUse">
<stop stop-color="#69AEFF"/>
<stop offset="1" stop-color="#2E57E6"/>
</linearGradient>
<linearGradient id="paint1_linear_228_37" x1="59.5526" y1="11.5543" x2="59.5526" y2="34.7345" gradientUnits="userSpaceOnUse">
<stop stop-color="#69AEFF"/>
<stop offset="1" stop-color="#2E57E6"/>
</linearGradient>
<linearGradient id="paint2_linear_228_37" x1="45.9186" y1="5.08752" x2="45.9186" y2="91.4616" gradientUnits="userSpaceOnUse">
<stop stop-color="#69AEFF"/>
<stop offset="1" stop-color="#2E57E6"/>
</linearGradient>
</defs>
</svg>
